<?xml version="1.0" encoding="utf-8"?>
<!-- Generator: Adobe Illustrator 17.0.2, SVG Export Plug-In . SVG Version: 6.00 Build 0)  -->
<!DOCTYPE svg PUBLIC "-//W3C//DTD SVG 1.1//EN" "http://www.w3.org/Graphics/SVG/1.1/DTD/svg11.dtd">
<svg version="1.1" id="Layer_1" xmlns="http://www.w3.org/2000/svg" xmlns:xlink="http://www.w3.org/1999/xlink" x="0px" y="0px"
	 width="439.024px" height="435.366px" viewBox="0 0 439.024 435.366" enable-background="new 0 0 439.024 435.366"
	 xml:space="preserve">
<path fill="#F1F2F2" stroke="#010101" stroke-miterlimit="10" d="M180.685,215.783"/>
<path fill="#F1F2F2" stroke="#010101" stroke-miterlimit="10" d="M180.695,234.471"/>
<path fill="#F1F2F2" stroke="#010101" stroke-miterlimit="10" d="M181.099,234.64"/>
<path fill="#F1F2F2" stroke="#010101" stroke-miterlimit="10" d="M200.17,236.471"/>
<g>
	<path fill="#CEE9DD" d="M246.404,194.942c0.285-20.026,0.828-58.873,0.828-65.075c0.014-0.545,0.335-13.383,0.322-15.972
		c0.319-0.666,4.282-2.567,17.846-2.567c10.781,0,20.547,5.503,20.607,5.537c15.542,9.489,30.989,28.706,16.349,66.365
		c-6.065,12.541-13.025,18.899-15.647,21.295l-0.229,0.211c-0.026,0.008-0.052,0.016-0.078,0.024
		c1.364,0.571,2.708,1.168,4.025,1.796c16.259-5.919,40.206-20.967,38.805-58.118c-0.665-17.625-8.252-33.545-21.362-44.827
		c-12.081-10.397-28.387-16.36-44.734-16.36c-2.527,0-5.074,0.142-7.492,0.414c-16.544,0.996-25.899,2.8-27.806,5.363
		c-0.234,0.314-0.352,0.616-0.408,0.876c-1.084,2.483-1.541,8.106-1.288,15.918l-0.241,5.662c0,7.791-1.124,59.342-1.165,61.262
		c-0.241,2.694-0.402,8.124-0.487,16.479C230.104,193.416,237.845,193.881,246.404,194.942z"/>
	<path fill="#CEE9DD" d="M125.252,103.247c7.348,0.499,13.083,9.927,14.665,12.805l0.088,0.142
		c0.107,0.152,10.659,15.755,8.229,57.549c-1.02,17.539-5.06,32.858-9.656,46.688c7.924-7.85,17.33-13.621,21.193-15.588
		c1.987-1.012,5.271-2.424,9.549-3.919c8.189-31.515,5.833-61.263-7.203-92.668c-6.268-15.101-19.151-25.742-32.822-27.11
		c-10.762-1.079-20.281,3.663-26.807,13.347c-8.855,13.141-5.025,24.869-0.252,32.394c2.493,3.932,5.404,6.982,7.407,8.848
		c1.541,1.438,2.393,2.013,3.351,1.618l0.445-0.182l0.256-0.407c0.437-0.694,0.304-1.467-0.59-3.443
		c-2.308-5.096-5.268-14.873,0.833-23.095C117.566,105.331,121.364,102.98,125.252,103.247z"/>
	<g>
		<path fill="#FFFFFF" d="M297.993,217.902c-24.047-17.446-68.085-18.803-81.009-18.803c-6.149,0-11.864,0.267-16.094,0.75
			c-18.463,2.109-33.189,7.686-38.396,10.339c-4.5,2.292-19.008,11.345-26.389,22.484c-2.188,3.304-4.064,6.318-5.576,8.962
			l-0.048,0.082l-0.041,0.086l-3.554,7.234l-0.09,0.182l-0.064,0.193c-3.018,9.066-4.558,15.759-4.993,21.699
			c-3.159,43.18,7.594,57.696,17.082,70.504c10.688,14.429,29.857,16.14,30.668,16.205l6.634,0.538l-3.99-5.327
			c-0.21-0.28-21.051-28.483-23.745-60.784c-2.574-30.854,6.327-50.58,26.458-58.633c14.806-5.994,30.699-9.03,47.251-9.03
			c0.202,0,0.405,0,0.608,0.001c0.113,27.408,0.505,60.539,0.768,82.714c0.15,12.703,0.259,21.882,0.259,25.031
			c0,15.94,0.717,22.963,5.158,25.184c2.168,1.084,6.48,1.633,12.818,1.633c8.402,0,19.485-0.957,32.94-2.846
			c14.4-2.02,29.556-11.495,41.579-25.993c12.077-14.561,19.004-31.866,19.004-47.478
			C335.232,250.185,324.254,236.952,297.993,217.902z M294.425,319.934c-2.066,1.559-13.038,9.33-26.191,9.33
			c-4.716,0-9.134-1.043-13.129-3.102c-6.859-3.43-7.076-8.646-6.917-20.12c0.021-1.506,0.043-3.076,0.043-4.713v-74.31
			c9.762,1.822,19.81,4.713,29.921,8.609c19.353,7.459,31.383,21.371,33.876,39.174
			C314.442,292.037,307.367,310.175,294.425,319.934z"/>
	</g>
</g>
<path fill="#F1F2F2" stroke="#010201" stroke-miterlimit="10" d="M225.685,202.783"/>
<path fill="#F1F2F2" stroke="#010201" stroke-miterlimit="10" d="M225.695,221.471"/>
<path fill="#F1F2F2" stroke="#010201" stroke-miterlimit="10" d="M226.099,221.64"/>
<path fill="#F1F2F2" stroke="#010201" stroke-miterlimit="10" d="M245.17,223.471"/>
</svg>
